<svg xmlns="http://www.w3.org/2000/svg" xmlns:xlink="http://www.w3.org/1999/xlink" width="1080" zoomAndPan="magnify" viewBox="0 0 810 809.999993" height="1080" preserveAspectRatio="xMidYMid meet" version="1.0"><defs><g/><clipPath id="55ee1b20e0"><path d="M 357 224 L 454 224 L 454 449.027344 L 357 449.027344 Z M 357 224 " clip-rule="nonzero"/></clipPath><clipPath id="72148bbd88"><path d="M 60.242188 160.964844 L 180.558594 160.964844 L 180.558594 649.015625 L 60.242188 649.015625 Z M 60.242188 160.964844 " clip-rule="nonzero"/></clipPath><clipPath id="2913c88c56"><path d="M 629.546875 160.980469 L 749.863281 160.980469 L 749.863281 649.027344 L 629.546875 649.027344 Z M 629.546875 160.980469 " clip-rule="nonzero"/></clipPath></defs><path fill="#319a8f" d="M 325.203125 417.378906 C 320.410156 417.378906 317.214844 415.78125 314.019531 412.585938 L 250.136719 348.703125 C 243.746094 342.3125 243.746094 332.730469 250.136719 326.34375 L 314.019531 262.457031 C 320.410156 256.070312 329.992188 256.070312 336.382812 262.457031 C 342.769531 268.84375 342.769531 278.429688 336.382812 284.816406 L 283.675781 337.523438 L 336.382812 390.226562 C 342.769531 396.617188 342.769531 406.199219 336.382812 412.585938 C 333.1875 415.78125 329.992188 417.378906 325.203125 417.378906 Z M 325.203125 417.378906 " fill-opacity="1" fill-rule="nonzero"/><path fill="#319a8f" d="M 484.914062 417.378906 C 480.125 417.378906 476.929688 415.78125 473.734375 412.585938 C 467.347656 406.199219 467.347656 396.617188 473.734375 390.226562 L 526.441406 337.523438 L 473.734375 284.816406 C 467.347656 278.429688 467.347656 268.84375 473.734375 262.457031 C 480.125 256.070312 489.707031 256.070312 496.09375 262.457031 L 559.980469 326.34375 C 566.367188 332.730469 566.367188 342.3125 559.980469 348.703125 L 496.09375 412.585938 C 492.898438 415.78125 489.707031 417.378906 484.914062 417.378906 Z M 484.914062 417.378906 " fill-opacity="1" fill-rule="nonzero"/><g clip-path="url(#55ee1b20e0)"><path fill="#319a8f" d="M 373.117188 449.320312 C 371.519531 449.320312 369.921875 449.320312 368.324219 447.722656 C 360.339844 444.53125 355.546875 436.542969 358.742188 426.960938 L 422.625 235.304688 C 425.820312 227.320312 433.804688 222.527344 443.390625 225.722656 C 451.375 228.917969 456.167969 236.902344 452.972656 246.484375 L 389.085938 438.140625 C 385.890625 444.53125 379.503906 449.320312 373.117188 449.320312 Z M 373.117188 449.320312 " fill-opacity="1" fill-rule="nonzero"/></g><g clip-path="url(#72148bbd88)"><path fill="#ffffff" d="M 170.160156 649.015625 L 163.1875 649.015625 C 129.511719 649.015625 102.113281 621.621094 102.113281 587.949219 L 102.113281 459.320312 C 102.113281 444.515625 94.164062 430.699219 81.371094 423.257812 L 65.414062 413.980469 C 62.214844 412.117188 60.242188 408.695312 60.242188 404.988281 C 60.242188 401.285156 62.214844 397.863281 65.414062 396.003906 L 81.371094 386.722656 C 94.164062 379.28125 102.113281 365.464844 102.113281 350.664062 L 102.113281 222.03125 C 102.113281 188.359375 129.511719 160.964844 163.1875 160.964844 L 170.160156 160.964844 C 175.902344 160.964844 180.558594 165.621094 180.558594 171.363281 C 180.558594 177.105469 175.902344 181.761719 170.160156 181.761719 L 163.1875 181.761719 C 140.976562 181.761719 122.910156 199.828125 122.910156 222.03125 L 122.910156 350.664062 C 122.910156 372.84375 111 393.550781 91.824219 404.699219 L 91.324219 404.988281 L 91.824219 405.28125 C 111 416.429688 122.910156 437.136719 122.910156 459.320312 L 122.910156 587.949219 C 122.910156 610.15625 140.976562 628.21875 163.1875 628.21875 L 170.160156 628.21875 C 175.902344 628.21875 180.558594 632.875 180.558594 638.617188 C 180.558594 644.359375 175.902344 649.015625 170.160156 649.015625 " fill-opacity="1" fill-rule="nonzero"/></g><g fill="#ffffff" fill-opacity="1"><g transform="translate(162.589843, 573.579903)"><g><path d="M 10.78125 -90.984375 L 31.84375 -90.984375 L 31.84375 0 L 10.78125 0 Z M 10.78125 -90.984375 "/></g></g></g><g fill="#ffffff" fill-opacity="1"><g transform="translate(205.220891, 573.579903)"><g><path d="M 51.859375 -70.96875 C 60.523438 -70.96875 67.519531 -68.367188 72.84375 -63.171875 C 78.175781 -57.972656 80.84375 -50.257812 80.84375 -40.03125 L 80.84375 0 L 60.578125 0 L 60.578125 -36.921875 C 60.578125 -42.460938 59.363281 -46.597656 56.9375 -49.328125 C 54.507812 -52.054688 51 -53.421875 46.40625 -53.421875 C 41.289062 -53.421875 37.21875 -51.835938 34.1875 -48.671875 C 31.15625 -45.515625 29.640625 -40.816406 29.640625 -34.578125 L 29.640625 0 L 9.359375 0 L 9.359375 -69.9375 L 28.71875 -69.9375 L 28.71875 -61.75 C 31.40625 -64.6875 34.742188 -66.957031 38.734375 -68.5625 C 42.722656 -70.164062 47.097656 -70.96875 51.859375 -70.96875 Z M 51.859375 -70.96875 "/></g></g></g><g fill="#ffffff" fill-opacity="1"><g transform="translate(295.032024, 573.579903)"><g><path d="M 54.328125 1.5625 C 45.054688 1.5625 36.671875 -0.453125 29.171875 -4.484375 C 21.679688 -8.515625 15.789062 -14.101562 11.5 -21.25 C 7.207031 -28.394531 5.0625 -36.476562 5.0625 -45.5 C 5.0625 -54.507812 7.207031 -62.585938 11.5 -69.734375 C 15.789062 -76.878906 21.679688 -82.46875 29.171875 -86.5 C 36.671875 -90.53125 45.101562 -92.546875 54.46875 -92.546875 C 62.351562 -92.546875 69.476562 -91.160156 75.84375 -88.390625 C 82.21875 -85.617188 87.570312 -81.632812 91.90625 -76.4375 L 78.375 -63.953125 C 72.226562 -71.054688 64.601562 -74.609375 55.5 -74.609375 C 49.863281 -74.609375 44.835938 -73.375 40.421875 -70.90625 C 36.003906 -68.4375 32.5625 -64.988281 30.09375 -60.5625 C 27.625 -56.144531 26.390625 -51.125 26.390625 -45.5 C 26.390625 -39.863281 27.625 -34.832031 30.09375 -30.40625 C 32.5625 -25.988281 36.003906 -22.546875 40.421875 -20.078125 C 44.835938 -17.609375 49.863281 -16.375 55.5 -16.375 C 64.601562 -16.375 72.226562 -19.972656 78.375 -27.171875 L 91.90625 -14.6875 C 87.570312 -9.40625 82.195312 -5.375 75.78125 -2.59375 C 69.363281 0.175781 62.210938 1.5625 54.328125 1.5625 Z M 54.328125 1.5625 "/></g></g></g><g fill="#ffffff" fill-opacity="1"><g transform="translate(390.30199, 573.579903)"><g><path d="M 42.640625 1.046875 C 35.273438 1.046875 28.664062 -0.488281 22.8125 -3.5625 C 16.957031 -6.644531 12.382812 -10.914062 9.09375 -16.375 C 5.800781 -21.832031 4.15625 -28.03125 4.15625 -34.96875 C 4.15625 -41.894531 5.800781 -48.085938 9.09375 -53.546875 C 12.382812 -59.015625 16.957031 -63.285156 22.8125 -66.359375 C 28.664062 -69.429688 35.273438 -70.96875 42.640625 -70.96875 C 50.003906 -70.96875 56.585938 -69.429688 62.390625 -66.359375 C 68.191406 -63.285156 72.738281 -59.015625 76.03125 -53.546875 C 79.332031 -48.085938 80.984375 -41.894531 80.984375 -34.96875 C 80.984375 -28.03125 79.332031 -21.832031 76.03125 -16.375 C 72.738281 -10.914062 68.191406 -6.644531 62.390625 -3.5625 C 56.585938 -0.488281 50.003906 1.046875 42.640625 1.046875 Z M 42.640625 -15.59375 C 47.835938 -15.59375 52.101562 -17.347656 55.4375 -20.859375 C 58.769531 -24.367188 60.4375 -29.070312 60.4375 -34.96875 C 60.4375 -40.863281 58.769531 -45.5625 55.4375 -49.0625 C 52.101562 -52.570312 47.835938 -54.328125 42.640625 -54.328125 C 37.429688 -54.328125 33.140625 -52.570312 29.765625 -49.0625 C 26.390625 -45.5625 24.703125 -40.863281 24.703125 -34.96875 C 24.703125 -29.070312 26.390625 -24.367188 29.765625 -20.859375 C 33.140625 -17.347656 37.429688 -15.59375 42.640625 -15.59375 Z M 42.640625 -15.59375 "/></g></g></g><g fill="#ffffff" fill-opacity="1"><g transform="translate(475.434104, 573.579903)"><g><path d="M 80.59375 -96.453125 L 80.59375 0 L 61.21875 0 L 61.21875 -8.0625 C 56.195312 -1.988281 48.921875 1.046875 39.390625 1.046875 C 32.796875 1.046875 26.832031 -0.425781 21.5 -3.375 C 16.175781 -6.320312 12 -10.523438 8.96875 -15.984375 C 5.9375 -21.441406 4.421875 -27.769531 4.421875 -34.96875 C 4.421875 -42.15625 5.9375 -48.476562 8.96875 -53.9375 C 12 -59.394531 16.175781 -63.597656 21.5 -66.546875 C 26.832031 -69.492188 32.796875 -70.96875 39.390625 -70.96875 C 48.316406 -70.96875 55.289062 -68.148438 60.3125 -62.515625 L 60.3125 -96.453125 Z M 42.890625 -15.59375 C 48.003906 -15.59375 52.25 -17.347656 55.625 -20.859375 C 59.007812 -24.367188 60.703125 -29.070312 60.703125 -34.96875 C 60.703125 -40.863281 59.007812 -45.5625 55.625 -49.0625 C 52.25 -52.570312 48.003906 -54.328125 42.890625 -54.328125 C 37.691406 -54.328125 33.398438 -52.570312 30.015625 -49.0625 C 26.640625 -45.5625 24.953125 -40.863281 24.953125 -34.96875 C 24.953125 -29.070312 26.640625 -24.367188 30.015625 -20.859375 C 33.398438 -17.347656 37.691406 -15.59375 42.890625 -15.59375 Z M 42.890625 -15.59375 "/></g></g></g><g fill="#ffffff" fill-opacity="1"><g transform="translate(565.375208, 573.579903)"><g><path d="M 77.859375 -34.703125 C 77.859375 -34.441406 77.726562 -32.625 77.46875 -29.25 L 24.5625 -29.25 C 25.519531 -24.914062 27.773438 -21.488281 31.328125 -18.96875 C 34.878906 -16.457031 39.296875 -15.203125 44.578125 -15.203125 C 48.222656 -15.203125 51.453125 -15.742188 54.265625 -16.828125 C 57.085938 -17.910156 59.707031 -19.625 62.125 -21.96875 L 72.921875 -10.265625 C 66.335938 -2.722656 56.71875 1.046875 44.0625 1.046875 C 36.175781 1.046875 29.195312 -0.488281 23.125 -3.5625 C 17.0625 -6.644531 12.382812 -10.914062 9.09375 -16.375 C 5.800781 -21.832031 4.15625 -28.03125 4.15625 -34.96875 C 4.15625 -41.8125 5.78125 -47.984375 9.03125 -53.484375 C 12.28125 -58.992188 16.742188 -63.285156 22.421875 -66.359375 C 28.097656 -69.429688 34.445312 -70.96875 41.46875 -70.96875 C 48.3125 -70.96875 54.503906 -69.492188 60.046875 -66.546875 C 65.597656 -63.597656 69.953125 -59.375 73.109375 -53.875 C 76.273438 -48.375 77.859375 -41.984375 77.859375 -34.703125 Z M 41.59375 -55.640625 C 37 -55.640625 33.140625 -54.335938 30.015625 -51.734375 C 26.898438 -49.128906 25 -45.578125 24.3125 -41.078125 L 58.75 -41.078125 C 58.0625 -45.492188 56.15625 -49.023438 53.03125 -51.671875 C 49.914062 -54.316406 46.101562 -55.640625 41.59375 -55.640625 Z M 41.59375 -55.640625 "/></g></g></g><g clip-path="url(#2913c88c56)"><path fill="#ffffff" d="M 639.945312 160.980469 L 646.917969 160.980469 C 680.59375 160.980469 707.988281 188.375 707.988281 222.046875 L 707.988281 350.675781 C 707.988281 365.476562 715.941406 379.296875 728.734375 386.734375 L 744.691406 396.015625 C 747.890625 397.878906 749.863281 401.300781 749.863281 405.003906 C 749.863281 408.710938 747.890625 412.132812 744.691406 413.992188 L 728.734375 423.273438 C 715.941406 430.710938 707.988281 444.53125 707.988281 459.332031 L 707.988281 587.960938 C 707.988281 621.636719 680.59375 649.03125 646.917969 649.03125 L 639.945312 649.03125 C 634.203125 649.03125 629.546875 644.375 629.546875 638.632812 C 629.546875 632.890625 634.203125 628.234375 639.945312 628.234375 L 646.917969 628.234375 C 669.125 628.234375 687.195312 610.167969 687.195312 587.960938 L 687.195312 459.332031 C 687.195312 437.152344 699.105469 416.445312 718.28125 405.296875 L 718.777344 405.003906 L 718.28125 404.714844 C 699.105469 393.566406 687.195312 372.859375 687.195312 350.675781 L 687.195312 222.046875 C 687.195312 199.839844 669.125 181.773438 646.917969 181.773438 L 639.945312 181.773438 C 634.203125 181.773438 629.546875 177.121094 629.546875 171.378906 C 629.546875 165.636719 634.203125 160.980469 639.945312 160.980469 " fill-opacity="1" fill-rule="nonzero"/></g></svg>